<svg width="32" height="32" viewBox="0 0 32 32" fill="none" xmlns="http://www.w3.org/2000/svg">
<path d="M5.33325 16C5.33325 16.3536 5.47373 16.6928 5.72378 16.9428C5.97382 17.1929 6.31296 17.3333 6.66659 17.3333H16.7866L13.7199 20.3867C13.5949 20.5106 13.4958 20.6581 13.4281 20.8206C13.3604 20.983 13.3255 21.1573 13.3255 21.3333C13.3255 21.5094 13.3604 21.6836 13.4281 21.8461C13.4958 22.0086 13.5949 22.156 13.7199 22.28C13.8439 22.405 13.9913 22.5042 14.1538 22.5719C14.3163 22.6395 14.4906 22.6744 14.6666 22.6744C14.8426 22.6744 15.0169 22.6395 15.1794 22.5719C15.3418 22.5042 15.4893 22.405 15.6133 22.28L20.9466 16.9467C21.068 16.8199 21.1631 16.6703 21.2266 16.5067C21.3599 16.1821 21.3599 15.818 21.2266 15.4933C21.1631 15.3297 21.068 15.1801 20.9466 15.0533L15.6133 9.72C15.4889 9.59568 15.3413 9.49707 15.1789 9.42979C15.0165 9.36251 14.8424 9.32788 14.6666 9.32788C14.4908 9.32788 14.3167 9.36251 14.1543 9.42979C13.9918 9.49707 13.8442 9.59568 13.7199 9.72C13.5956 9.84432 13.497 9.99191 13.4297 10.1543C13.3624 10.3168 13.3278 10.4909 13.3278 10.6667C13.3278 10.8425 13.3624 11.0166 13.4297 11.179C13.497 11.3414 13.5956 11.489 13.7199 11.6133L16.7866 14.6667H6.66659C6.31296 14.6667 5.97382 14.8071 5.72378 15.0572C5.47373 15.3072 5.33325 15.6464 5.33325 16ZM22.6666 2.66667H9.33325C8.27239 2.66667 7.25497 3.0881 6.50482 3.83824C5.75468 4.58839 5.33325 5.6058 5.33325 6.66667V10.6667C5.33325 11.0203 5.47373 11.3594 5.72378 11.6095C5.97382 11.8595 6.31296 12 6.66659 12C7.02021 12 7.35935 11.8595 7.60939 11.6095C7.85944 11.3594 7.99992 11.0203 7.99992 10.6667V6.66667C7.99992 6.31305 8.14039 5.97391 8.39044 5.72386C8.64049 5.47381 8.97963 5.33333 9.33325 5.33333H22.6666C23.0202 5.33333 23.3593 5.47381 23.6094 5.72386C23.8594 5.97391 23.9999 6.31305 23.9999 6.66667V25.3333C23.9999 25.687 23.8594 26.0261 23.6094 26.2761C23.3593 26.5262 23.0202 26.6667 22.6666 26.6667H9.33325C8.97963 26.6667 8.64049 26.5262 8.39044 26.2761C8.14039 26.0261 7.99992 25.687 7.99992 25.3333V21.3333C7.99992 20.9797 7.85944 20.6406 7.60939 20.3905C7.35935 20.1405 7.02021 20 6.66659 20C6.31296 20 5.97382 20.1405 5.72378 20.3905C5.47373 20.6406 5.33325 20.9797 5.33325 21.3333V25.3333C5.33325 26.3942 5.75468 27.4116 6.50482 28.1618C7.25497 28.9119 8.27239 29.3333 9.33325 29.3333H22.6666C23.7274 29.3333 24.7449 28.9119 25.495 28.1618C26.2452 27.4116 26.6666 26.3942 26.6666 25.3333V6.66667C26.6666 5.6058 26.2452 4.58839 25.495 3.83824C24.7449 3.0881 23.7274 2.66667 22.6666 2.66667Z" fill="#595959"/>
</svg>
